<?xml version="1.0" standalone="no"?>
<!DOCTYPE svg PUBLIC "-//W3C//DTD SVG 20010904//EN"
 "http://www.w3.org/TR/2001/REC-SVG-20010904/DTD/svg10.dtd">
<svg version="1.0" xmlns="http://www.w3.org/2000/svg"
 width="285.000000pt" height="270.000000pt" viewBox="0 0 285.000000 270.000000"
 preserveAspectRatio="xMidYMid meet">

<g transform="translate(0.000000,270.000000) scale(0.100000,-0.100000)"
fill="#BF9CFF" stroke="none">
<path d="M1114 2615 c-71 -42 -135 -82 -142 -89 -8 -8 -52 -143 -99 -302 -46
-159 -86 -291 -89 -293 -2 -2 -96 15 -209 38 -114 24 -216 40 -228 37 -15 -4
-67 -73 -156 -208 l-135 -203 -22 -155 c-21 -144 -22 -157 -7 -180 26 -40 923
-1203 947 -1228 l22 -23 163 21 c89 11 167 22 172 26 5 3 42 54 81 112 39 59
74 111 78 115 4 5 96 -46 204 -113 l197 -122 167 11 c106 8 172 17 180 25 9 9
17 106 28 349 l16 336 -23 33 c-171 244 -778 1079 -796 1096 -19 17 -37 22
-81 23 -31 0 -79 4 -107 7 l-50 7 48 39 47 38 91 -11 c51 -5 93 -12 94 -13 1
-2 185 -257 408 -568 l407 -564 232 -104 c144 -64 241 -102 257 -100 26 3 26
4 28 93 2 50 -3 252 -10 450 l-13 360 -360 502 c-197 276 -366 505 -374 508
-11 5 -814 125 -833 125 -2 0 -61 -34 -133 -75z m181 -85 l49 -49 -28 -153
c-50 -274 -34 -239 -144 -322 -54 -40 -128 -91 -166 -113 l-68 -41 -34 20
c-26 15 -33 25 -28 41 2 12 40 141 83 287 l78 265 94 57 c52 32 99 57 104 58
6 0 33 -22 60 -50z m-725 -734 c0 -15 -49 -259 -53 -261 -12 -8 -388 -165
-395 -165 -5 0 -3 42 5 98 l14 97 116 172 116 172 98 -50 c55 -27 99 -55 99
-63z m763 34 c8 -7 -238 -330 -251 -330 -4 0 -78 -9 -166 -20 -87 -12 -161
-19 -163 -16 -3 3 44 72 103 154 100 138 114 152 179 190 l70 41 110 -6 c61
-3 114 -9 118 -13z m-480 -32 c15 -12 5 -29 -93 -163 -61 -82 -115 -151 -120
-153 -5 -2 -14 6 -20 18 -8 16 -5 50 14 151 14 73 27 134 30 136 3 4 97 17
157 22 8 0 23 -5 32 -11z m136 -901 l440 -548 -73 -107 -74 -107 -123 -16
c-68 -8 -127 -14 -131 -12 -7 4 -892 1150 -895 1161 -2 7 396 181 409 178 4 0
205 -248 447 -549z m612 -107 c277 -341 505 -624 507 -629 1 -4 -42 -11 -97
-15 l-99 -7 -201 124 -200 124 -392 489 c-300 375 -387 490 -373 492 74 11
304 40 325 41 24 1 86 -71 530 -619z"/>
<path d="M2356 632 c-10 -165 -8 -276 6 -290 7 -7 19 -12 28 -12 22 0 341 146
359 165 8 8 11 23 8 37 -5 19 -28 35 -104 70 -54 25 -141 66 -194 91 l-96 45
-7 -106z"/>
</g>
</svg>
