<?xml version="1.0" standalone="no"?>
<!DOCTYPE svg PUBLIC "-//W3C//DTD SVG 20010904//EN"
 "http://www.w3.org/TR/2001/REC-SVG-20010904/DTD/svg10.dtd">
<svg version="1.0" xmlns="http://www.w3.org/2000/svg"
 width="1196.000000pt" height="270.000000pt" viewBox="0 0 1196.000000 270.000000"
 preserveAspectRatio="xMidYMid meet">

<g transform="translate(0.000000,270.000000) scale(0.100000,-0.100000)"
fill="#BF9CFF" stroke="none">
<path d="M10212 2621 c-74 -44 -138 -83 -142 -87 -5 -5 -47 -139 -94 -297 -46
-159 -86 -291 -88 -293 -3 -2 -99 15 -214 38 -115 23 -217 39 -227 35 -9 -3
-79 -100 -155 -214 l-138 -208 -18 -135 c-10 -74 -20 -146 -23 -160 -4 -21 22
-60 141 -215 80 -105 150 -195 155 -201 38 -46 251 -325 251 -329 0 -3 8 -13
18 -23 9 -9 104 -131 210 -269 107 -138 200 -254 209 -257 8 -3 87 3 176 14
88 11 164 20 169 20 4 0 42 52 84 115 43 63 81 115 86 115 12 0 192 -112 196
-122 2 -4 8 -8 13 -8 9 0 140 -78 149 -89 10 -12 37 -12 195 -1 180 12 191 14
199 37 4 8 13 166 22 350 15 318 15 335 -2 361 -25 38 -794 1105 -805 1116 -7
8 -127 23 -203 25 -15 1 -10 8 22 32 l42 30 81 -9 c45 -6 85 -14 89 -19 4 -4
188 -259 410 -566 336 -467 408 -561 438 -575 21 -9 40 -21 44 -27 4 -5 8 -7
8 -3 0 7 34 -7 170 -70 214 -98 245 -107 270 -77 11 13 10 100 -1 458 l-14
443 -354 494 c-194 272 -361 503 -370 512 -12 13 -113 31 -434 77 -230 34
-421 61 -425 61 -4 0 -67 -36 -140 -79z m186 -101 l43 -50 -32 -178 c-17 -97
-38 -186 -45 -198 -17 -28 -197 -163 -265 -199 -55 -28 -58 -28 -82 -12 -26
17 -26 17 -12 64 8 27 45 152 82 280 l68 232 95 55 c52 31 97 56 100 56 3 0
24 -23 48 -50z m-813 -672 c52 -26 85 -48 85 -58 -1 -21 -47 -240 -51 -245
-15 -14 -375 -161 -378 -153 -2 5 2 46 9 90 11 79 13 83 123 244 61 90 115
164 119 164 4 0 46 -19 93 -42z m851 -22 c2 -1 -138 -182 -222 -288 -20 -25
-31 -28 -175 -47 -85 -11 -155 -18 -157 -16 -2 2 42 67 99 145 96 131 109 144
174 181 l70 39 105 -6 c58 -4 106 -7 106 -8z m-481 -36 c7 -11 -193 -290 -207
-290 -5 0 -11 6 -13 13 -6 15 39 254 49 265 6 6 43 11 148 20 9 1 20 -3 23 -8z
m4 -737 c165 -208 307 -385 314 -393 8 -8 67 -82 132 -163 l118 -148 -69 -102
-69 -102 -80 -12 c-44 -6 -99 -12 -122 -14 l-42 -3 -441 573 c-243 315 -439
575 -436 579 11 11 361 160 378 161 10 1 129 -141 317 -376z m287 294 c22 -29
246 -305 498 -615 252 -310 456 -565 454 -567 -1 -1 -41 -6 -88 -10 l-85 -6
-199 123 -199 124 -382 479 c-277 348 -378 481 -366 484 33 7 267 38 296 39
25 0 37 -9 71 -51z"/>
<path d="M8330 2636 l-95 -11 -3 -845 c-3 -893 0 -945 43 -1035 56 -118 125
-151 336 -162 l116 -6 6 69 c13 130 18 120 -73 127 -101 7 -151 29 -167 77 -9
26 -12 261 -12 918 l-1 882 -27 -1 c-16 -1 -71 -7 -123 -13z"/>
<path d="M688 2530 c-262 -47 -457 -192 -573 -423 -81 -161 -115 -325 -115
-552 0 -479 189 -808 537 -935 113 -41 211 -54 360 -47 150 6 239 28 358 90
148 76 288 246 310 378 l7 36 -87 31 c-99 37 -124 39 -131 15 -16 -57 -72
-148 -119 -195 -98 -98 -222 -148 -370 -148 -310 0 -525 208 -581 562 -22 140
-15 387 16 508 79 318 301 495 599 478 141 -9 257 -63 350 -163 39 -43 101
-154 101 -182 0 -20 34 -15 130 18 101 35 98 28 59 134 -66 178 -234 319 -454
380 -69 19 -323 29 -397 15z"/>
<path d="M5889 2413 l-65 -4 -13 -152 c-6 -84 -14 -171 -17 -193 l-6 -41 -106
-8 c-63 -4 -110 -11 -114 -18 -4 -7 -8 -38 -8 -69 l0 -58 109 0 109 0 4 -502
c4 -432 7 -512 22 -563 45 -162 139 -211 427 -222 l156 -6 6 54 c4 30 7 70 7
89 l0 36 -132 10 c-154 12 -191 26 -216 82 -15 33 -17 96 -20 530 l-3 492 190
0 191 0 0 75 0 75 -190 0 -190 0 0 200 0 200 -37 -2 c-21 -1 -68 -3 -104 -5z"/>
<path d="M4674 2035 c-138 -30 -243 -106 -295 -211 -28 -57 -33 -76 -33 -147
-1 -113 17 -176 66 -232 40 -46 127 -112 141 -107 4 1 7 -2 7 -6 0 -5 6 -9 13
-10 37 -4 430 -144 472 -169 69 -40 98 -96 92 -178 -11 -155 -128 -236 -316
-222 -138 11 -264 62 -336 137 -16 16 -36 30 -45 30 -8 0 -44 -28 -78 -63
l-62 -62 51 -52 c101 -103 257 -161 454 -170 149 -7 241 8 334 52 130 62 199
157 222 304 21 138 -8 249 -85 327 -70 69 -159 113 -380 185 -99 33 -200 71
-224 85 -56 33 -82 76 -82 137 0 62 19 105 63 144 47 42 118 56 243 51 85 -3
109 -8 159 -32 32 -16 76 -45 97 -64 22 -20 44 -32 53 -28 23 8 134 100 134
111 1 5 -24 33 -55 62 -63 60 -151 105 -245 128 -79 18 -280 19 -365 0z"/>
<path d="M7044 2036 c-106 -20 -181 -44 -255 -82 l-68 -34 26 -67 c14 -38 30
-81 35 -96 6 -15 13 -27 17 -25 3 2 40 20 81 41 101 51 204 77 330 84 143 8
207 -10 270 -75 25 -26 51 -65 58 -87 8 -22 16 -101 19 -177 l6 -136 -264 -5
c-290 -5 -333 -12 -442 -70 -139 -73 -205 -224 -177 -403 35 -220 191 -334
460 -334 163 0 279 41 387 135 49 43 51 44 57 22 3 -12 6 -38 6 -57 1 -80 0
-80 117 -80 l104 0 -3 532 c-4 462 -7 541 -21 591 -48 165 -140 259 -306 314
-64 21 -342 27 -437 9z m516 -960 l0 -143 -43 -42 c-101 -98 -205 -141 -338
-141 -140 0 -226 49 -255 145 -36 120 3 237 93 280 73 35 134 43 341 44 l202
1 0 -144z"/>
<path d="M2438 2029 c-107 -25 -206 -103 -271 -212 l-35 -57 -5 32 c-3 18 -9
77 -13 131 l-6 97 -104 0 -104 0 0 -715 0 -715 125 0 125 0 0 428 c0 473 5
517 61 622 38 72 93 124 163 156 52 23 152 44 217 44 l37 0 7 89 c4 49 4 94 0
100 -7 13 -143 13 -197 0z"/>
<path d="M2760 2015 c0 -3 131 -308 292 -678 160 -370 291 -679 290 -687 -1
-8 -47 -132 -102 -275 -56 -143 -102 -264 -103 -269 -1 -4 10 -9 25 -11 14 -2
61 -13 103 -25 43 -12 81 -18 85 -13 5 4 184 447 398 983 l390 975 -111 3
c-61 1 -116 1 -122 -2 -6 -2 -105 -245 -221 -539 -115 -294 -212 -533 -215
-532 -3 2 -106 245 -228 539 l-223 536 -129 0 c-71 0 -129 -2 -129 -5z"/>
<path d="M11457 629 c-15 -266 -9 -309 43 -309 19 0 344 144 368 163 7 6 12
24 10 41 -3 30 -12 35 -189 122 -103 51 -195 95 -206 98 -19 6 -20 0 -26 -115z"/>
</g>
</svg>
