<?xml version="1.0" standalone="no"?>
<!DOCTYPE svg PUBLIC "-//W3C//DTD SVG 20010904//EN"
 "http://www.w3.org/TR/2001/REC-SVG-20010904/DTD/svg10.dtd">
<svg version="1.0" xmlns="http://www.w3.org/2000/svg"
 width="600.000000pt" height="400.000000pt" viewBox="0 0 600.000000 400.000000"
 preserveAspectRatio="xMidYMid meet">

<g transform="translate(0.000000,400.000000) scale(0.100000,-0.100000)"
fill="#3B4252" stroke="none">
<path d="M2134 3989 c-171 -22 -305 -162 -366 -384 -20 -72 -22 -103 -22 -310
1 -191 4 -250 22 -348 12 -66 22 -125 22 -132 0 -8 -41 -23 -107 -39 -263 -66
-501 -165 -633 -262 -83 -62 -169 -161 -204 -234 -29 -60 -31 -73 -31 -176 0
-108 1 -112 39 -189 62 -124 193 -246 388 -358 88 -51 168 -25 168 55 0 46
-15 64 -93 109 -221 129 -330 256 -330 389 -1 189 275 376 713 485 58 14 112
28 121 31 12 3 20 -11 34 -63 26 -95 78 -256 121 -370 l36 -96 -85 -171 c-193
-388 -311 -733 -352 -1031 -20 -142 -16 -348 9 -438 40 -144 123 -252 232
-304 55 -25 69 -27 189 -28 147 0 196 12 360 90 108 51 269 156 284 184 19 34
13 80 -14 106 -40 41 -78 34 -186 -36 -183 -118 -315 -169 -444 -170 -137 -2
-213 65 -250 223 -50 214 30 643 191 1020 63 147 147 328 153 328 3 0 45 -80
93 -178 214 -437 482 -841 766 -1157 233 -258 483 -442 688 -506 90 -28 217
-30 294 -4 158 52 252 178 307 408 22 91 24 408 4 542 -33 227 -96 481 -176
715 -95 276 -247 620 -283 639 -32 17 -77 13 -106 -10 -40 -31 -35 -77 20
-195 290 -624 431 -1240 370 -1614 -51 -312 -206 -398 -481 -266 -198 94 -472
349 -717 666 -211 274 -458 698 -622 1069 l-46 104 77 126 c93 153 173 274
267 403 l71 98 175 0 c685 -1 1434 -159 1842 -391 162 -91 283 -200 326 -293
74 -156 -47 -320 -338 -458 -47 -22 -93 -47 -102 -55 -27 -24 -24 -94 5 -121
39 -37 85 -29 211 34 531 264 569 672 92 986 -378 249 -1003 416 -1746 468
-80 5 -185 10 -233 10 l-88 0 75 88 c98 115 358 369 466 456 187 151 362 249
507 287 130 33 198 22 268 -42 86 -79 118 -222 96 -426 -26 -236 -26 -235 2
-261 34 -32 102 -28 129 9 48 64 70 415 34 559 -47 189 -164 315 -324 349 -71
15 -127 14 -211 -4 -332 -70 -765 -401 -1185 -907 -100 -121 -81 -112 -266
-122 -52 -3 -159 -13 -238 -22 -78 -9 -145 -14 -148 -11 -3 3 -15 54 -25 114
-26 143 -36 426 -19 530 34 212 124 325 259 325 111 0 220 -44 386 -157 77
-52 104 -65 135 -65 46 0 80 35 80 84 0 46 -20 68 -122 136 -210 141 -381 198
-534 179z m252 -1296 c-32 -51 -239 -363 -249 -377 -13 -18 -23 10 -122 331
-4 13 26 19 188 38 135 15 190 18 183 8z"/>
</g>
</svg>
